<?xml version="1.0" encoding="utf-8"?>
<!-- Generator: Adobe Illustrator 21.0.2, SVG Export Plug-In . SVG Version: 6.00 Build 0)  -->
<svg version="1.1" id="Layer_1" xmlns="http://www.w3.org/2000/svg" xmlns:xlink="http://www.w3.org/1999/xlink" x="0px" y="0px"
	 viewBox="0 0 100 125" style="enable-background:new 0 0 100 125;" xml:space="preserve">
<style type="text/css">
	.st0{clip-path:url(#SVGID_2_);fill:#D0E7F0;}
</style>
<g>
	<g>
		<defs>
			<rect id="SVGID_1_" x="6" y="5.9" width="88.1" height="88.1"/>
		</defs>
		<clipPath id="SVGID_2_">
			<use xlink:href="#SVGID_1_"  style="overflow:visible;"/>
		</clipPath>
		<path class="st0" d="M57.7,30.4H46.3V19c0-0.8-0.7-1.5-1.5-1.5H31.9c-0.8,0-1.5,0.7-1.5,1.5v11.4H19.1c-0.8,0-1.5,0.7-1.5,1.5
			v12.9c0,0.4,0.2,0.8,0.4,1.1s0.7,0.4,1.1,0.4l0,0h11.4v11.4c0,0.8,0.7,1.5,1.5,1.5h12.9c0.8,0,1.5-0.7,1.5-1.5V46.3h11.4
			c0.8,0,1.5-0.7,1.5-1.5V31.9C59.2,31.1,58.5,30.4,57.7,30.4z M56.2,43.3H44.8c-0.8,0-1.5,0.7-1.5,1.5v11.4h-9.9V44.8
			c0-0.4-0.2-0.8-0.4-1.1s-0.7-0.4-1.1-0.4l0,0H20.5v-9.9h11.4c0.8,0,1.5-0.7,1.5-1.5V20.5h9.9v11.4c0,0.8,0.7,1.5,1.5,1.5h11.4
			C56.2,33.4,56.2,43.3,56.2,43.3z M93.6,84.1L72.7,63.2c-0.6-0.6-1.6-0.6-2.1,0L68,65.8l-5.6-5.6c5.3-5.8,8.5-13.4,8.5-21.8
			C70.9,20.5,56.4,6,38.5,6C20.5,5.9,6,20.5,6,38.4s14.5,32.4,32.4,32.4c8.4,0,16.1-3.2,21.8-8.5l5.6,5.6l-2.7,2.7
			c-0.6,0.6-0.6,1.5,0,2.1L84,93.6c0.3,0.3,0.7,0.4,1.1,0.4s0.8-0.2,1.1-0.4l7.4-7.4C94.2,85.6,94.2,84.7,93.6,84.1z M38.4,67.8
			C22.2,67.8,9,54.6,9,38.4C9,22.1,22.2,8.9,38.4,8.9s29.4,13.2,29.4,29.4C67.8,54.6,54.6,67.8,38.4,67.8z M85.1,90.4L66.3,71.6
			l2.6-2.6l0,0l0,0l2.6-2.6l18.8,18.8L85.1,90.4z"/>
	</g>
</g>
</svg>
