<svg xmlns="http://www.w3.org/2000/svg" xmlns:xlink="http://www.w3.org/1999/xlink" version="1.1" x="0px" y="0px" viewBox="0 0 100 125" enable-background="new 0 0 100 100" xml:space="preserve"><path d="M57.671,30.414h-11.37V19.048c0-0.829-0.672-1.5-1.5-1.5H31.939c-0.829,0-1.5,0.671-1.5,1.5v11.366H19.068  c-0.828,0-1.5,0.672-1.5,1.5v12.867c0,0.397,0.158,0.779,0.439,1.061s0.662,0.439,1.061,0.439l0,0l11.371-0.005v11.382  c0,0.829,0.671,1.5,1.5,1.5h12.861c0.828,0,1.5-0.671,1.5-1.5V46.275h11.37c0.829,0,1.5-0.671,1.5-1.5V31.914  C59.171,31.086,58.5,30.414,57.671,30.414z M56.171,43.275h-11.37c-0.828,0-1.5,0.672-1.5,1.5v11.383h-9.861V44.775  c0-0.397-0.158-0.779-0.439-1.061s-0.663-0.439-1.061-0.439h-0.001l-11.37,0.005v-9.866h11.371c0.828,0,1.5-0.671,1.5-1.5V20.548  h9.861v11.366c0,0.829,0.672,1.5,1.5,1.5h11.37V43.275z M93.598,84.084L72.671,63.156c-0.563-0.563-1.56-0.563-2.122,0l-2.627,2.629  l-5.61-5.613c5.255-5.764,8.464-13.424,8.464-21.82c0-17.868-14.536-32.405-32.403-32.405c-17.87,0-32.409,14.537-32.409,32.405  c0,17.872,14.539,32.412,32.409,32.412c8.396,0,16.056-3.212,21.817-8.471l5.611,5.614l-2.656,2.657  c-0.586,0.586-0.586,1.536,0,2.121l20.924,20.928c0.281,0.281,0.662,0.439,1.061,0.439s0.779-0.158,1.061-0.439l7.408-7.408  C94.184,85.619,94.184,84.67,93.598,84.084z M38.372,67.764c-16.216,0-29.409-13.194-29.409-29.412  c0-16.214,13.193-29.405,29.409-29.405c16.213,0,29.403,13.191,29.403,29.405C67.775,54.569,54.585,67.764,38.372,67.764z   M85.129,90.431L66.326,71.625l2.619-2.621c0.014-0.012,0.031-0.016,0.044-0.028s0.017-0.03,0.029-0.044l2.593-2.594l18.805,18.807  L85.129,90.431z"/><text x="0" y="115" fill="#000000" font-size="5px" font-weight="bold" font-family="'Helvetica Neue', Helvetica, Arial-Unicode, Arial, Sans-serif">Created by Sergey Demushkin</text><text x="0" y="120" fill="#000000" font-size="5px" font-weight="bold" font-family="'Helvetica Neue', Helvetica, Arial-Unicode, Arial, Sans-serif">from the Noun Project</text></svg>