<?xml version="1.0" encoding="utf-8"?>
<!-- Generator: Adobe Illustrator 21.0.2, SVG Export Plug-In . SVG Version: 6.00 Build 0)  -->
<svg version="1.1" id="Layer_1" xmlns="http://www.w3.org/2000/svg" xmlns:xlink="http://www.w3.org/1999/xlink" x="0px" y="0px"
	 viewBox="0 0 100 125" style="enable-background:new 0 0 100 125;" xml:space="preserve">
<style type="text/css">
	.st0{clip-path:url(#SVGID_2_);fill:#93708D;}
</style>
<title>delete</title>
<g>
	<g>
		<defs>
			<rect id="SVGID_1_" x="10.5" width="79" height="100"/>
		</defs>
		<clipPath id="SVGID_2_">
			<use xlink:href="#SVGID_1_"  style="overflow:visible;"/>
		</clipPath>
		<path class="st0" d="M14.1,28.2c0,0.4,0,0.6,0,0.9c0,3.1,0,6.1,0,9.2c0,16.9,0,33.8,0,50.7c-0.1,6,4.6,10.9,10.5,11
			c0.1,0,0.2,0,0.2,0c16.7,0,33.5,0,50.2,0c0.9,0,1.8-0.1,2.7-0.3c4.9-1.2,8.3-5.6,8.2-10.7c0-19.9,0-39.8,0-59.6c0-0.4,0-0.7,0-1.2
			H14.1L14.1,28.2z M32,89.3c-2,0-3.6-1.6-3.6-3.6c0-0.1,0-0.2,0-0.3c0-7.1,0-14.2,0-21.3l0,0c0-7.2,0-14.4,0-21.6
			c0-2,1.6-3.7,3.6-3.7c1.6,0,3.1,1.1,3.5,2.6c0.1,0.4,0.2,0.9,0.2,1.3c0,14.2,0,28.4,0,42.7c0.1,2-1.4,3.7-3.4,3.8
			C32.2,89.3,32.1,89.3,32,89.3z M50,89.3c-2,0-3.6-1.6-3.6-3.6c0-0.1,0-0.2,0-0.3c0-7.1,0-14.2,0-21.3l0,0c0-7.2,0-14.4,0-21.6
			c0-2,1.6-3.7,3.6-3.7c1.6,0,3.1,1.1,3.6,2.6c0.1,0.4,0.2,0.9,0.2,1.3c0,14.2,0,28.4,0,42.7c0.1,2-1.4,3.7-3.4,3.8
			C50.2,89.3,50.1,89.3,50,89.3z M68,89.3c-2,0-3.6-1.6-3.6-3.6c0-0.1,0-0.2,0-0.3c0-7.1,0-14.3,0-21.5l0,0c0-7.1,0-14.3,0-21.5
			c0-2,1.6-3.6,3.6-3.6c1.6,0,3,1.1,3.5,2.6c0.1,0.4,0.2,0.9,0.2,1.3c0,14.2,0,28.4,0,42.7c0.1,2-1.4,3.7-3.4,3.8
			C68.1,89.3,68,89.3,68,89.3L68,89.3z M77.3,8H65.6V7.9c0-4.4-3.5-7.9-7.8-7.9l0,0H42.3c-4.4,0-7.9,3.5-7.9,7.9l0,0V8H22.7
			C16,8,10.5,13.4,10.5,20.2l0,0l0,0c0,0.9,0.1,1.7,0.3,2.6h78.5c0.2-0.9,0.3-1.7,0.3-2.6l0,0C89.5,13.5,84,8,77.3,8z"/>
	</g>
</g>
</svg>
