<?xml version="1.0" encoding="utf-8"?>
<!-- Generator: Adobe Illustrator 21.0.2, SVG Export Plug-In . SVG Version: 6.00 Build 0)  -->
<svg version="1.1" id="Layer_1" xmlns="http://www.w3.org/2000/svg" xmlns:xlink="http://www.w3.org/1999/xlink" x="0px" y="0px"
	 viewBox="0 0 100 125" style="enable-background:new 0 0 100 125;" xml:space="preserve">
<style type="text/css">
	.st0{clip-path:url(#SVGID_2_);}
	.st1{fill:#F2F3F5;}
</style>
<g>
	<defs>
		<rect id="SVGID_1_" x="16.8" y="20.2" width="67" height="59"/>
	</defs>
	<clipPath id="SVGID_2_">
		<use xlink:href="#SVGID_1_"  style="overflow:visible;"/>
	</clipPath>
	<g class="st0">
		<path class="st1" d="M73.7,45.9H72c-0.6,0-1.2,0.4-1.4,0.9l-0.3,0.7l-1.4-4.7c-0.2-0.6-0.7-1-1.3-1.1c-0.6,0-1.2,0.3-1.5,0.9
			l-1.4,3.2H63c-0.6,0-1.2,0.4-1.4,0.9l-0.3,0.7l-1.4-4.7c-0.2-0.6-0.7-1-1.3-1.1c-0.6,0-1.2,0.3-1.5,0.9l-1.4,3.2H44.4
			c-0.6,0-1.2,0.4-1.4,0.9l-0.3,0.7l-1.4-4.7c-0.2-0.6-0.7-1-1.3-1.1c-0.6,0-1.2,0.3-1.5,0.9l-1.4,3.2h-1.7c-0.6,0-1.2,0.4-1.4,0.9
			l-0.3,0.7l-1.4-4.7c-0.2-0.6-0.7-1-1.3-1.1c-0.6,0-1.2,0.3-1.5,0.9l-1.4,3.2h-1.2c-0.8,0-1.5,0.7-1.5,1.5s0.7,1.5,1.5,1.5h2.2
			c0.6,0,1.1-0.4,1.4-0.9l0.2-0.4l1.5,4.8c0.2,0.6,0.7,1,1.4,1.1c0.6,0,1.2-0.3,1.5-0.9l1.5-3.6h1.6c0.6,0,1.1-0.4,1.4-0.9l0.2-0.4
			l1.5,4.8c0.2,0.6,0.7,1,1.4,1.1c0,0,0,0,0.1,0c0.6,0,1.2-0.4,1.4-0.9l1.5-3.6H57c0.6,0,1.1-0.4,1.4-0.9l0.2-0.4l1.5,4.8
			c0.2,0.6,0.7,1,1.4,1.1c0.6,0,1.2-0.3,1.5-0.9l1.5-3.6h1.6c0.6,0,1.1-0.4,1.4-0.9l0.2-0.4l1.5,4.8c0.2,0.6,0.7,1,1.4,1.1
			c0.6,0,1.2-0.3,1.5-0.9l1.5-3.6h0.7c0.8,0,1.5-0.7,1.5-1.5S74.5,45.9,73.7,45.9z"/>
		<path class="st1" d="M77.3,25.7c-3.5-3.6-8.2-5.5-13.2-5.5s-9.7,2-13.2,5.5l-0.6,0.6l-0.6-0.6c-3.5-3.6-8.2-5.5-13.2-5.5
			s-9.7,2-13.2,5.5c-8.8,8.9-7.1,19.4-4.1,26.6c6.2,14.9,22.1,26.9,31.1,26.9s24.9-12,31.1-26.9C84.4,45.1,86.1,34.7,77.3,25.7z
			 M78.6,51.2c-5.6,13.5-20.3,25-28.3,25S27.6,64.7,22,51.2c-2.7-6.4-4.2-15.6,3.4-23.3c3-3,6.9-4.7,11.1-4.7s8.1,1.7,11.1,4.7
			l1.6,1.7c0.6,0.6,1.6,0.6,2.1,0l1.6-1.7c3-3,6.9-4.7,11.1-4.7s8.1,1.7,11.1,4.7C82.8,35.6,81.2,44.8,78.6,51.2z"/>
	</g>
</g>
</svg>
