<svg xmlns="http://www.w3.org/2000/svg" xmlns:xlink="http://www.w3.org/1999/xlink" version="1.1" x="0px" y="0px" viewBox="0 0 100 125" enable-background="new 0 0 100 100" xml:space="preserve"><path d="M88.4,11.289l-0.355-0.355c-8.801-8.8-23.2-8.8-32,0L11.6,55.378c-8.8,8.8-8.8,23.2,0,32l0.355,0.355  c8.8,8.8,23.2,8.8,31.999,0L88.4,43.288C97.199,34.488,97.199,20.089,88.4,11.289z M84.562,15.127  c0.424,0.424,0.818,0.864,1.189,1.319c-0.382-0.457-0.778-0.907-1.208-1.336L84.562,15.127z M84.206,14.772l0.018,0.018  c-0.429-0.429-0.88-0.825-1.336-1.208C83.342,13.953,83.783,14.348,84.206,14.772z M40.117,83.895  c-6.707,6.707-17.617,6.707-24.323,0l-0.355-0.355c-6.707-6.706-6.707-17.617,0-24.323L37.66,36.994L37.666,37  c5.851-5.852,10.792-10.792,14.573-14.572l5.598-5.598c6.837-6.837,17.427-7.755,25.289-2.781  c-7.687-2.505-16.493-0.738-22.573,5.342l-6.09,6.089c-3.703,3.704-8.432,8.433-14.158,14.159L62.34,61.673L40.117,83.895z"/><path d="M41.468,73.589l-5.041,5.041c-5.032,5.032-12.321,6.494-18.683,4.42c6.507,4.118,15.271,3.357,20.931-2.301l4.633-4.633  c3.275-3.276,7.594-7.594,12.738-12.739l-2.183-2.183C48.813,66.244,44.68,70.377,41.468,73.589z"/><path d="M80.547,65.428c-7.981,0-14.452,6.471-14.452,14.453c0,7.981,6.471,14.452,14.452,14.452C88.529,94.333,95,87.862,95,79.881  C95,71.899,88.529,65.428,80.547,65.428z M83.406,82.595v8.36h-5.718v-8.36h-8.361v-5.429h8.361v-8.36h5.718v8.36h8.359v5.429  H83.406z"/><text x="0" y="115" fill="#000000" font-size="5px" font-weight="bold" font-family="'Helvetica Neue', Helvetica, Arial-Unicode, Arial, Sans-serif">Created by Dima Lagunov</text><text x="0" y="120" fill="#000000" font-size="5px" font-weight="bold" font-family="'Helvetica Neue', Helvetica, Arial-Unicode, Arial, Sans-serif">from the Noun Project</text></svg>