<?xml version="1.0" encoding="utf-8"?>
<!-- Generator: Adobe Illustrator 21.0.2, SVG Export Plug-In . SVG Version: 6.00 Build 0)  -->
<svg version="1.1" id="Layer_1" xmlns="http://www.w3.org/2000/svg" xmlns:xlink="http://www.w3.org/1999/xlink" x="0px" y="0px"
	 viewBox="0 0 60 67.5" style="enable-background:new 0 0 60 67.5;" xml:space="preserve">
<style type="text/css">
	.st0{clip-path:url(#SVGID_2_);}
</style>
<title>Combined Shape</title>
<desc>Created with Sketch.</desc>
<g>
	<defs>
		<rect id="SVGID_1_" width="60" height="54"/>
	</defs>
	<clipPath id="SVGID_2_">
		<use xlink:href="#SVGID_1_"  style="overflow:visible;"/>
	</clipPath>
	<g class="st0">
		<g transform="translate(-1258.000000, -1404.000000)">
			<g transform="translate(254.000000, 1403.000000)">
				<g transform="translate(975.000000, 0.000000)">
					<g transform="translate(29.000000, 0.000000)">
						<g transform="translate(0.000000, 1.000000)">
							<path d="M0,0h56c2.2,0,4,1.8,4,4v4H4C1.8,8,0,6.2,0,4V0L0,0z M0,23h56c2.2,0,4,1.8,4,4v4H4c-2.2,0-4-1.8-4-4V23L0,23z M0,46
								h56c2.2,0,4,1.8,4,4v4H4c-2.2,0-4-1.8-4-4V46L0,46z"/>
						</g>
					</g>
				</g>
			</g>
		</g>
	</g>
</g>
</svg>
