<svg xmlns="http://www.w3.org/2000/svg" data-name="Layer 1" viewBox="0 0 100 125" x="0px" y="0px"><title>_</title><path d="M81.72,18.27V15.93H79.38v2.35H20.63V15.93H18.27v2.35H3v65.8H97V18.27Zm0,7.05v-2a2.35,2.35,0,1,1-2.35,0v2Zm-61.1,0v-2a2.35,2.35,0,1,1-2.35,0v2ZM17.1,81.72H5.35V70H17.1Zm0-12.92H5.35V57.64H17.1Zm0-12.34H5.35V45.3H17.1Zm0-12.34H5.35V32.38H17.1ZM30,81.72H18.27V70H30ZM30,68.8H18.27V57.64H30Zm0-12.34H18.27V45.3H30Zm0-12.34H18.27V32.38H30ZM43,81.72H31.2V70H43ZM43,68.8H31.2V57.64H43Zm0-12.34H31.2V45.3H43Zm0-12.34H31.2V32.38H43Zm12.92,37.6H44.13V70H55.88Zm0-12.92H44.13V57.64H55.88Zm0-12.34H44.13V45.3H55.88Zm0-12.34H44.13V32.38H55.88ZM68.8,81.72H57.05V70H68.8Zm0-12.92H57.05V57.64H68.8Zm0-12.34H57.05V45.3H68.8Zm0-12.34H57.05V32.38H68.8Zm12.92,37.6H70V70H81.72Zm0-12.92H70V57.64H81.72Zm0-12.34H70V45.3H81.72Zm0-12.34H70V32.38H81.72Zm12.93,37.6H82.9V70H94.65Zm0-12.92H82.9V57.64H94.65Zm0-12.34H82.9V45.3H94.65Zm0-12.34H82.9V32.38H94.65Zm0-14.1H5.35v-9.4H18.27V22a3.53,3.53,0,1,0,2.35,0V20.63H79.38V22a3.53,3.53,0,1,0,2.35,0V20.63H94.65Z"/><text x="0" y="115" fill="#000000" font-size="5px" font-weight="bold" font-family="'Helvetica Neue', Helvetica, Arial-Unicode, Arial, Sans-serif">Created by pxLens</text><text x="0" y="120" fill="#000000" font-size="5px" font-weight="bold" font-family="'Helvetica Neue', Helvetica, Arial-Unicode, Arial, Sans-serif">from the Noun Project</text></svg>