<?xml version="1.0" encoding="utf-8"?>
<!-- Generator: Adobe Illustrator 21.0.2, SVG Export Plug-In . SVG Version: 6.00 Build 0)  -->
<svg version="1.1" id="Layer_1" xmlns="http://www.w3.org/2000/svg" xmlns:xlink="http://www.w3.org/1999/xlink" x="0px" y="0px"
	 viewBox="0 0 100 125" style="enable-background:new 0 0 100 125;" xml:space="preserve">
<style type="text/css">
	.st0{clip-path:url(#SVGID_2_);}
	.st1{fill:#27CECF;}
</style>
<g>
	<defs>
		<rect id="SVGID_1_" x="12" y="11.4" width="76.6" height="76.6"/>
	</defs>
	<clipPath id="SVGID_2_">
		<use xlink:href="#SVGID_1_"  style="overflow:visible;"/>
	</clipPath>
	<g class="st0">
		<path class="st1" d="M82.4,17.6c-7.4-7.4-19.5-7.4-26.9,0l-38,38C14,59.2,12,63.9,12,69c0,5.1,2,9.8,5.6,13.4
			C21.3,86.1,26.1,88,31,88s9.7-1.9,13.4-5.6l38-38C86,40.8,88,36.1,88,31C88,25.9,86,21.1,82.4,17.6z M79.6,41.6L60.5,60.7
			L39.3,39.5l19.1-19.1C61.3,17.5,65.2,16,69,16s7.7,1.5,10.6,4.4C82.4,23.2,84,27,84,31C84,35,82.4,38.8,79.6,41.6z"/>
	</g>
</g>
</svg>
