<?xml version="1.0" encoding="utf-8"?>
<!-- Generator: Adobe Illustrator 21.0.2, SVG Export Plug-In . SVG Version: 6.00 Build 0)  -->
<svg version="1.1" id="Layer_1" xmlns="http://www.w3.org/2000/svg" xmlns:xlink="http://www.w3.org/1999/xlink" x="0px" y="0px"
	 viewBox="0 0 100 125" style="enable-background:new 0 0 100 125;" xml:space="preserve">
<style type="text/css">
	.st0{clip-path:url(#SVGID_2_);fill:#31375D;}
</style>
<g>
	<defs>
		<rect id="SVGID_1_" x="18.8" y="5" width="62.4" height="90"/>
	</defs>
	<clipPath id="SVGID_2_">
		<use xlink:href="#SVGID_1_"  style="overflow:visible;"/>
	</clipPath>
	<path class="st0" d="M72.3,28.8H27.7c-2.5,0-4.6,1.8-4.6,3.9v58.4c0,2.2,2,3.9,4.6,3.9h44.5c2.5,0,4.6-1.8,4.6-3.9V32.7
		C76.8,30.5,74.8,28.8,72.3,28.8z M73,73.8c0,2.5-2.2,4.5-4.8,4.5H31.4c-2.7,0-4.8-2-4.8-4.5V42.9c0-2.5,2.1-4.5,4.8-4.5h36.8
		c2.7,0,4.8,2,4.8,4.5L73,73.8L73,73.8z M78,20.1h-2.1c0.3-0.6,0.4-1.2,0.4-1.9V9.5c0-2.5-2-4.5-4.6-4.5H28.3c-2.5,0-4.6,2-4.6,4.5
		v8.7c0,0.7,0.2,1.3,0.4,1.9H22c-1.8,0-3.2,1.4-3.2,3.2s1.5,3.2,3.2,3.2h56c1.8,0,3.2-1.4,3.2-3.2S79.8,20.1,78,20.1z M26.5,19.9
		h-0.8V7.4h0.8V19.9z M29.1,20h-0.8V7.5h0.8V20z M31.4,20h-0.8V7.5h0.8V20z M33.8,20H33V7.5h0.8V20z M35.9,20h-0.8V7.5h0.8V20z
		 M38.5,20.1h-0.8V7.7h0.8V20.1z M40.7,20.1H40V7.7h0.8V20.1z M43.1,20.1h-0.8V7.7h0.8V20.1z M45.2,20h-0.8V7.5h0.8V20z M47.7,20.1
		H47V7.7h0.8V20.1z M50,20.1h-0.8V7.7H50V20.1z M52.4,20.1h-0.8V7.7h0.8V20.1z M54.8,20h-0.8V7.5h0.8L54.8,20L54.8,20z M57.4,20.1
		h-0.8V7.7h0.8V20.1z M59.6,20.1h-0.8V7.7h0.8V20.1z M62.1,20.1h-0.8V7.7h0.8V20.1z M64.2,20h-0.8V7.5h0.8V20z M66.7,20.1H66V7.7
		h0.8V20.1z M69,20.1h-0.8V7.7H69V20.1z M71.4,20.1h-0.8V7.7h0.8V20.1z M73.7,20.1H73V7.7h0.8V20.1z M46.7,44c0.6,0.3,1,0.8,1.4,1.4
		c0.3,0.5,0.6,1.1,0.8,1.7c0.2,0.6,0.3,1.3,0.3,2.1c0,1-0.2,1.9-0.5,2.8c-0.4,0.9-1,1.6-1.8,2c0.7,0.4,1.2,0.9,1.5,1.6
		c0.3,0.7,0.4,1.7,0.4,3.2v1.4c0,0.9,0,1.6,0.1,1.9c0.1,0.5,0.3,0.9,0.6,1.2v0.5h-3.5c-0.1-0.4-0.2-0.8-0.2-1.1
		c-0.1-0.6-0.1-1.1-0.1-1.7l0-1.9c0-1.3-0.2-2.1-0.5-2.6c-0.3-0.4-0.9-0.6-1.8-0.6h-3.1v7.9h-3.1V43.5h7.2
		C45.3,43.6,46.1,43.7,46.7,44z M40.1,47v5.4h3.4c0.7,0,1.2-0.1,1.5-0.3c0.6-0.4,0.9-1.1,0.9-2.3c0-1.2-0.3-2-0.9-2.5
		c-0.3-0.2-0.8-0.4-1.5-0.4L40.1,47L40.1,47z M53.2,73.5h-3.7l4.9-10.3l-4.6-9.9h3.8l2.7,6.6l2.8-6.6h3.7L58,63L63,73.5h-3.8
		l-2.9-6.9L53.2,73.5z"/>
</g>
</svg>
