<?xml version="1.0" encoding="utf-8"?>
<!-- Generator: Adobe Illustrator 21.0.2, SVG Export Plug-In . SVG Version: 6.00 Build 0)  -->
<svg version="1.1" id="Layer_1" xmlns="http://www.w3.org/2000/svg" xmlns:xlink="http://www.w3.org/1999/xlink" x="0px" y="0px"
	 viewBox="0 0 100 125" style="enable-background:new 0 0 100 125;" xml:space="preserve">
<style type="text/css">
	.st0{clip-path:url(#SVGID_2_);}
</style>
<g>
	<defs>
		<rect id="SVGID_1_" width="98" height="100"/>
	</defs>
	<clipPath id="SVGID_2_">
		<use xlink:href="#SVGID_1_"  style="overflow:visible;"/>
	</clipPath>
	<g class="st0">
		<path d="M44.6,35.5c-5.7,5.7-5.7,14.9,0,20.6c2.8,2.8,6.4,4.3,10.3,4.3c3.4,0,6.6-1.2,9.2-3.3V34.5c-2.6-2.1-5.8-3.3-9.2-3.3
			C51,31.2,47.4,32.8,44.6,35.5z M40.5,22.9H13.1c-2.9,0-5.2,2.3-5.2,5.2s2.3,5.2,5.2,5.2h17.8c1.3-2.4,2.9-4.7,4.9-6.7
			C37.2,25.2,38.8,24,40.5,22.9z M49.1,18.8c5.2,0,9.4-4.2,9.4-9.4S54.2,0,49.1,0s-9.4,4.2-9.4,9.4S43.9,18.8,49.1,18.8z M85,22.9
			H69.4c1.7,1.1,3.3,2.3,4.7,3.8c2,2,3.6,4.2,4.9,6.7h6c2.9,0,5.2-2.3,5.2-5.2S87.9,22.9,85,22.9z M34,63v30.8
			c0,3.5,2.8,6.2,6.2,6.2c3.5,0,6.2-2.8,6.2-6.2V71.6c-4-1.3-7.6-3.5-10.7-6.6C35.1,64.3,34.5,63.7,34,63z M51.7,72.7v21
			c0,3.5,2.8,6.2,6.2,6.2s6.3-2.8,6.3-6.2V71.3c-2.9,1.1-6,1.6-9.2,1.6C53.8,72.9,52.7,72.8,51.7,72.7z"/>
		<path d="M96.2,78.2L77,59.1c-0.6-0.6-1.3-1-2-1.3c2.1-3.6,3.3-7.7,3.3-12c0-6.3-2.4-12.1-6.9-16.6c-4.4-4.4-10.3-6.9-16.6-6.9
			c-6.3,0-12.1,2.4-16.6,6.9s-6.9,10.3-6.9,16.6c0,6.3,2.4,12.1,6.9,16.6c4.4,4.4,10.3,6.9,16.6,6.9c4.3,0,8.4-1.2,12-3.3
			c0.3,0.7,0.7,1.4,1.3,2l19.1,19.1c1.2,1.2,2.8,1.8,4.4,1.8c1.6,0,3.2-0.6,4.4-1.8C98.6,84.6,98.6,80.7,96.2,78.2z M42,58.7
			c-3.4-3.4-5.3-8-5.3-12.9c0-4.9,1.9-9.4,5.3-12.9c3.4-3.4,8-5.3,12.9-5.3c4.9,0,9.4,1.9,12.9,5.3c3.4,3.4,5.3,8,5.3,12.9
			c0,4.9-1.9,9.4-5.3,12.9c-3.4,3.4-8,5.3-12.9,5.3C50.1,64.1,45.5,62.2,42,58.7z"/>
	</g>
</g>
</svg>
