<?xml version="1.0" encoding="utf-8"?>
<!-- Generator: Adobe Illustrator 21.0.2, SVG Export Plug-In . SVG Version: 6.00 Build 0)  -->
<svg version="1.1" id="Layer_1" xmlns="http://www.w3.org/2000/svg" xmlns:xlink="http://www.w3.org/1999/xlink" x="0px" y="0px"
	 viewBox="0 0 100 125" style="enable-background:new 0 0 100 125;" xml:space="preserve">
<style type="text/css">
	.st0{clip-path:url(#SVGID_2_);fill:#EEB5B7;}
</style>
<g>
	<defs>
		<rect id="SVGID_1_" x="5" y="4.3" width="90" height="90"/>
	</defs>
	<clipPath id="SVGID_2_">
		<use xlink:href="#SVGID_1_"  style="overflow:visible;"/>
	</clipPath>
	<path class="st0" d="M88.4,11.3L88,10.9c-8.8-8.8-23.2-8.8-32,0L11.6,55.4c-8.8,8.8-8.8,23.2,0,32l0.4,0.4c8.8,8.8,23.2,8.8,32,0
		l44.4-44.4C97.2,34.5,97.2,20.1,88.4,11.3z M84.6,15.1c0.4,0.4,0.8,0.9,1.2,1.3C85.4,16,85,15.5,84.6,15.1L84.6,15.1z M84.2,14.8
		L84.2,14.8c-0.4-0.4-0.9-0.8-1.3-1.2C83.3,14,83.8,14.3,84.2,14.8z M40.1,83.9c-6.7,6.7-17.6,6.7-24.3,0l-0.4-0.4
		c-6.7-6.7-6.7-17.6,0-24.3L37.7,37l0,0c5.9-5.9,10.8-10.8,14.6-14.6l5.6-5.6C64.7,10,75.3,9.1,83.1,14c-7.7-2.5-16.5-0.7-22.6,5.3
		l-6.1,6.1c-3.7,3.7-8.4,8.4-14.2,14.2l22,22L40.1,83.9z"/>
	<path class="st0" d="M41.5,73.6l-5,5c-5,5-12.3,6.5-18.7,4.4c6.5,4.1,15.3,3.4,20.9-2.3l4.6-4.6c3.3-3.3,7.6-7.6,12.7-12.7
		l-2.2-2.2C48.8,66.2,44.7,70.4,41.5,73.6z"/>
	<path class="st0" d="M80.5,65.4c-8,0-14.5,6.5-14.5,14.5c0,8,6.5,14.5,14.5,14.5c8,0,14.5-6.5,14.5-14.5
		C95,71.9,88.5,65.4,80.5,65.4z M83.4,82.6V91h-5.7v-8.4h-8.4v-5.4h8.4v-8.4h5.7v8.4h8.4v5.4H83.4z"/>
</g>
</svg>
