<?xml version="1.0" encoding="utf-8"?>
<!-- Generator: Adobe Illustrator 21.0.2, SVG Export Plug-In . SVG Version: 6.00 Build 0)  -->
<svg version="1.1" id="Layer_1" xmlns="http://www.w3.org/2000/svg" xmlns:xlink="http://www.w3.org/1999/xlink" x="0px" y="0px"
	 viewBox="0 0 100 125" style="enable-background:new 0 0 100 125;" xml:space="preserve">
<style type="text/css">
	.st0{clip-path:url(#SVGID_2_);fill:#EEB5B7;}
</style>
<g>
	<title>_</title>
	<g>
		<defs>
			<rect id="SVGID_1_" x="3" y="15.9" width="94" height="68.2"/>
		</defs>
		<clipPath id="SVGID_2_">
			<use xlink:href="#SVGID_1_"  style="overflow:visible;"/>
		</clipPath>
		<path class="st0" d="M81.7,18.3V16h-2.3v2.4H20.6V16h-2.4v2.4H3v65.8h94V18.3H81.7z M81.7,25.3v-2c1.1,0.6,1.5,2.1,0.9,3.2
			s-2.1,1.5-3.2,0.9s-1.5-2.1-0.9-3.2c0.2-0.4,0.5-0.7,0.9-0.9v2H81.7z M20.6,25.3v-2c1.1,0.6,1.5,2.1,0.9,3.2s-2.1,1.5-3.2,0.9
			s-1.5-2.1-0.9-3.2c0.2-0.4,0.5-0.7,0.9-0.9v2H20.6z M17.1,81.7H5.3V70h11.8V81.7z M17.1,68.8H5.3V57.6h11.8V68.8z M17.1,56.5H5.3
			V45.3h11.8V56.5z M17.1,44.1H5.3V32.4h11.8V44.1z M30,81.7H18.3V70H30V81.7z M30,68.8H18.3V57.6H30V68.8z M30,56.5H18.3V45.3H30
			V56.5z M30,44.1H18.3V32.4H30V44.1z M43,81.7H31.2V70H43V81.7z M43,68.8H31.2V57.6H43V68.8z M43,56.5H31.2V45.3H43V56.5z M43,44.1
			H31.2V32.4H43V44.1z M55.9,81.7H44.1V70h11.8L55.9,81.7z M55.9,68.8H44.1V57.6h11.8L55.9,68.8z M55.9,56.5H44.1V45.3h11.8
			L55.9,56.5z M55.9,44.1H44.1V32.4h11.8L55.9,44.1z M68.8,81.7H57V70h11.8V81.7z M68.8,68.8H57V57.6h11.8V68.8z M68.8,56.5H57V45.3
			h11.8V56.5z M68.8,44.1H57V32.4h11.8V44.1z M81.7,81.7H70V70h11.7V81.7z M81.7,68.8H70V57.6h11.7V68.8z M81.7,56.5H70V45.3h11.7
			V56.5z M81.7,44.1H70V32.4h11.7V44.1z M94.7,81.7H82.9V70h11.8C94.7,70,94.7,81.7,94.7,81.7z M94.7,68.8H82.9V57.6h11.8
			C94.7,57.6,94.7,68.8,94.7,68.8z M94.7,56.5H82.9V45.3h11.8C94.7,45.3,94.7,56.5,94.7,56.5z M94.7,44.1H82.9V32.4h11.8
			C94.7,32.4,94.7,44.1,94.7,44.1z M94.7,30H5.3v-9.4h12.9V22c-1.8,0.6-2.8,2.7-2.2,4.5c0.6,1.8,2.7,2.8,4.5,2.2
			c1.8-0.6,2.8-2.7,2.2-4.5c-0.4-1-1.1-1.8-2.2-2.2v-1.4h58.8V22c-1.8,0.6-2.8,2.7-2.2,4.5c0.6,1.8,2.7,2.8,4.5,2.2s2.8-2.7,2.2-4.5
			c-0.4-1-1.1-1.8-2.2-2.2v-1.4h12.9V30H94.7z"/>
	</g>
</g>
</svg>
