<?xml version="1.0" encoding="utf-8"?>
<!-- Generator: Adobe Illustrator 21.0.2, SVG Export Plug-In . SVG Version: 6.00 Build 0)  -->
<svg version="1.1" id="Layer_1" xmlns="http://www.w3.org/2000/svg" xmlns:xlink="http://www.w3.org/1999/xlink" x="0px" y="0px"
	 viewBox="0 0 100 125" style="enable-background:new 0 0 100 125;" xml:space="preserve">
<style type="text/css">
	.st0{clip-path:url(#SVGID_2_);}
</style>
<g>
	<defs>
		<rect id="SVGID_1_" x="25" y="18.7" width="30.3" height="62"/>
	</defs>
	<clipPath id="SVGID_2_">
		<use xlink:href="#SVGID_1_"  style="overflow:visible;"/>
	</clipPath>
	<path class="st0" d="M47.4,23.4h1v7.3h0.4c3.6,0,6.5,4.8,6.5,10.8v28.4c0,5.9-2.9,10.8-6.5,10.8H31.5c-3.6,0-6.5-4.8-6.5-10.8V41.4
		c0-5.9,2.9-10.8,6.5-10.8h0.4v-7.3h1v-2h-1v-2.7h16.6v2.7h-1V23.4z M53.3,46.8v-5.4c0-4.1-2-7.3-4.4-7.3h-2.4v-7.3H33.9v7.3h-2.4
		c-2.5,0-4.4,3.3-4.4,7.3v5.4H53.3z M27,63.9v6c0,4.1,2,7.3,4.4,7.3h17.3c2.5,0,4.4-3.3,4.4-7.3v-6H27z M37.7,53.2v4.3h1.8v2.9h2.6
		v-2.9h1.8v-4.3h-1.8v-2.9h-2.6v2.9H37.7z"/>
</g>
</svg>
