<?xml version="1.0" encoding="utf-8"?>
<!-- Generator: Adobe Illustrator 21.0.2, SVG Export Plug-In . SVG Version: 6.00 Build 0)  -->
<svg version="1.1" id="Layer_1" xmlns="http://www.w3.org/2000/svg" xmlns:xlink="http://www.w3.org/1999/xlink" x="0px" y="0px"
	 viewBox="0 0 100 125" style="enable-background:new 0 0 100 125;" xml:space="preserve">
<style type="text/css">
	.st0{fill:none;}
	.st1{clip-path:url(#SVGID_2_);}
	.st2{fill:#EEB5B7;}
	.st3{clip-path:url(#SVGID_4_);fill:#EEB5B7;}
</style>
<rect x="24.3" y="8.4" class="st0" width="30.1" height="83.2"/>
<g>
	<g>
		<defs>
			<rect id="SVGID_1_" x="16.8" y="-12.4" width="45.2" height="124.8"/>
		</defs>
		<clipPath id="SVGID_2_">
			<use xlink:href="#SVGID_1_"  style="overflow:visible;"/>
		</clipPath>
		<g class="st1">
			<polygon class="st2" points="36.1,-7.6 34.9,-9.4 36.7,-12.4 54.7,15.9 52.9,18.9 51.9,17.2 50.7,19.2 34.9,-5.5 			"/>
		</g>
	</g>
	<g>
		<defs>
			<rect id="SVGID_3_" x="16.8" y="-12.4" width="45.2" height="124.8"/>
		</defs>
		<clipPath id="SVGID_4_">
			<use xlink:href="#SVGID_3_"  style="overflow:visible;"/>
		</clipPath>
		<path class="st3" d="M51.7,37.6h0.6c5.4,0,9.8,7.2,9.8,16.2v42.6c0,8.8-4.4,16.2-9.8,16.2H26.5c-5.4,0-9.8-7.2-9.8-16.2V53.6
			c0-8.9,4.4-16.2,9.8-16.2h0.6v-11h24.7v11.1H51.7z M58.9,61.7v-8.1c0-6.1-3-11-6.6-11h-3.6V31.7H30.1v10.9h-3.6
			c-3.6,0-6.6,5-6.6,11v8.1H58.9z M19.9,87.4v9c0,6.1,3,11,6.6,11h25.8c3.6,0,6.6-5,6.6-11v-9H19.9z M35.8,71.3v6.5h2.5v4.4h3.9
			v-4.4h2.6v-6.5h-2.6v-4.3h-3.9v4.3H35.8z"/>
	</g>
</g>
</svg>
