<?xml version="1.0" encoding="utf-8"?>
<!-- Generator: Adobe Illustrator 21.0.2, SVG Export Plug-In . SVG Version: 6.00 Build 0)  -->
<svg version="1.1" id="Layer_1" xmlns="http://www.w3.org/2000/svg" xmlns:xlink="http://www.w3.org/1999/xlink" x="0px" y="0px"
	 viewBox="0 0 100 125" style="enable-background:new 0 0 100 125;" xml:space="preserve">
<style type="text/css">
	.st0{fill:none;}
	.st1{clip-path:url(#SVGID_2_);}
	.st2{fill:#EEB5B7;}
	.st3{clip-path:url(#SVGID_2_);fill:#EEB5B7;}
</style>
<rect x="24.3" y="8.4" class="st0" width="30.1" height="83.2"/>
<g>
	<defs>
		<rect id="SVGID_1_" x="24.3" y="8.4" width="30.1" height="83.2"/>
	</defs>
	<clipPath id="SVGID_2_">
		<use xlink:href="#SVGID_1_"  style="overflow:visible;"/>
	</clipPath>
	<g class="st1">
		<polygon class="st2" points="37.2,11.6 36.4,10.4 37.6,8.4 49.6,27.3 48.4,29.3 47.7,28.1 46.9,29.5 36.4,13 		"/>
	</g>
	<path class="st3" d="M47.6,41.7H48c3.6,0,6.5,4.8,6.5,10.8v28.4c0,5.9-2.9,10.8-6.5,10.8H30.8c-3.6,0-6.5-4.8-6.5-10.8V52.4
		c0-5.9,2.9-10.8,6.5-10.8h0.4v-7.3h16.5V41.7z M52.4,57.8v-5.4c0-4.1-2-7.3-4.4-7.3h-2.4v-7.3H33.2v7.3h-2.4
		c-2.4,0-4.4,3.3-4.4,7.3v5.4H52.4z M26.4,74.9v6c0,4.1,2,7.3,4.4,7.3H48c2.4,0,4.4-3.3,4.4-7.3v-6H26.4z M37,64.2v4.3h1.7v2.9h2.6
		v-2.9H43v-4.3h-1.7v-2.9h-2.6v2.9H37z"/>
</g>
</svg>
