<?xml version="1.0" encoding="utf-8"?>
<!-- Generator: Adobe Illustrator 21.0.2, SVG Export Plug-In . SVG Version: 6.00 Build 0)  -->
<svg version="1.1" id="Layer_1" xmlns="http://www.w3.org/2000/svg" xmlns:xlink="http://www.w3.org/1999/xlink" x="0px" y="0px"
	 viewBox="0 0 100 125" style="enable-background:new 0 0 100 125;" xml:space="preserve">
<style type="text/css">
	.st0{clip-path:url(#SVGID_2_);}
	.st1{fill:#F2F3F5;}
</style>
<g>
	<defs>
		<rect id="SVGID_1_" x="12" y="11.4" width="76.6" height="76.6"/>
	</defs>
	<clipPath id="SVGID_2_">
		<use xlink:href="#SVGID_1_"  style="overflow:visible;"/>
	</clipPath>
	<g class="st0">
		<path class="st1" d="M17.6,17.6c-7.4,7.4-7.4,19.5,0,26.9l38,38C59.2,86,63.9,88,69,88c5.1,0,9.8-2,13.4-5.6
			C86.1,78.7,88,73.9,88,69s-1.9-9.7-5.6-13.4l-38-38C40.8,14,36.1,12,31,12C25.9,12,21.1,14,17.6,17.6z M41.6,20.4l19.1,19.1
			L39.5,60.7L20.4,41.6C17.5,38.7,16,34.8,16,31s1.5-7.7,4.4-10.6C23.2,17.6,27,16,31,16C35,16,38.8,17.6,41.6,20.4z"/>
	</g>
</g>
</svg>
